<?xml version="1.0" standalone="no"?>
<!DOCTYPE svg PUBLIC "-//W3C//DTD SVG 20010904//EN"
 "http://www.w3.org/TR/2001/REC-SVG-20010904/DTD/svg10.dtd">
<svg version="1.0" xmlns="http://www.w3.org/2000/svg"
 width="464.000000pt" height="464.000000pt" viewBox="0 0 464.000000 464.000000"
 preserveAspectRatio="xMidYMid meet">
<metadata>
Created by potrace 1.11, written by Peter Selinger 2001-2013
</metadata>
<g transform="translate(0.000000,464.000000) scale(0.100000,-0.100000)"
fill="#000000" stroke="none">
<path d="M2510 3508 c-72 -7 -262 -53 -382 -92 -167 -55 -299 -132 -372 -218
-120 -139 -119 -284 3 -470 190 -290 420 -475 877 -703 l201 -100 -14 -40
c-19 -56 -81 -115 -202 -196 -251 -166 -587 -306 -794 -328 -59 -7 -126 -18
-148 -26 -54 -19 -89 -19 -89 0 0 8 42 59 93 113 50 54 128 142 171 196 44 53
102 117 129 142 50 45 50 45 39 83 -17 55 -81 148 -148 215 -58 57 -134 116
-151 116 -4 0 -17 -14 -28 -30 -11 -17 -74 -81 -140 -143 -254 -237 -312 -307
-355 -430 -36 -103 -25 -145 84 -310 157 -236 312 -335 504 -321 104 8 463 98
673 170 232 79 398 171 509 284 89 90 115 144 115 241 0 67 -4 83 -38 151 -51
103 -133 206 -214 268 -40 30 -156 94 -283 156 -311 153 -312 153 -408 222
-48 35 -119 84 -159 110 -62 40 -73 52 -78 82 -13 77 -14 105 -4 154 34 179
168 280 539 406 l115 39 190 3 c224 3 254 -4 275 -68 13 -39 9 -168 -10 -294
-18 -121 -15 -133 44 -213 30 -39 79 -97 110 -127 l56 -54 1 34 c0 19 2 42 3
50 3 14 6 53 22 255 16 209 -122 453 -338 595 -93 61 -255 93 -398 78z"/>
</g>
</svg>
